<svg width="81" height="81" viewBox="0 0 81 81" fill="none" xmlns="http://www.w3.org/2000/svg">
<g filter="url(#filter0_d)">
<path d="M55.7559 71.9307H25.2441C22.8818 71.9307 20.9668 70.0157 20.9668 67.6533V5.34668C20.9668 2.9843 22.8818 1.06934 25.2441 1.06934H55.7559C58.1182 1.06934 60.0332 2.9843 60.0332 5.34668V67.6533C60.0332 70.0157 58.1182 71.9307 55.7559 71.9307Z" fill="#EAF6FF"/>
<path d="M47.4691 49.1478C47.4691 59.4556 55.8982 66.2615 59.8519 68.8866C59.9694 68.496 60.0332 68.0822 60.0332 67.6533V33.2258C52.8363 34.9459 47.4691 41.4315 47.4691 49.1478Z" fill="#D8ECFE"/>
<path d="M55.7559 73H25.2441C22.2959 73 19.8975 70.6015 19.8975 67.6533V5.34668C19.8975 2.39845 22.2959 0 25.2441 0H55.7559C58.7041 0 61.1025 2.39845 61.1025 5.34668V67.6533C61.1025 70.6015 58.7041 73 55.7559 73ZM25.2441 2.13867C23.4752 2.13867 22.0361 3.57786 22.0361 5.34668V67.6533C22.0361 69.4221 23.4752 70.8613 25.2441 70.8613H55.7559C57.5248 70.8613 58.9639 69.4221 58.9639 67.6533V5.34668C58.9639 3.57786 57.5248 2.13867 55.7559 2.13867H25.2441Z" fill="#9E9797"/>
<path d="M25.263 41.3344C20.5774 41.3344 16.3383 38.5714 14.4701 34.2996L12.2412 29.203C10.9513 26.2536 10.8121 22.9325 11.8506 19.8867L13.13 16.1347C14.3137 12.6632 17.591 10.3275 21.278 10.3275H29.2479C32.9351 10.3275 36.2122 12.6632 37.3959 16.1347L38.6753 19.8867C39.7138 22.9325 39.5747 26.2536 38.2848 29.203L36.0558 34.2996C34.1876 38.5712 29.9485 41.3344 25.263 41.3344Z" fill="#FED2A4"/>
<path d="M38.6756 19.8866L37.3962 16.1348C36.3843 13.1671 33.8419 11.031 30.8218 10.4731C31.8472 11.4184 32.6486 12.6173 33.1189 13.9962L34.3982 17.748C35.4368 20.7939 35.2976 24.1149 34.0077 27.0643L31.7788 32.1609C29.9106 36.4327 25.6714 39.1957 20.9859 39.1957C19.9452 39.1957 18.9266 39.0587 17.9511 38.7998C19.9907 40.4075 22.5517 41.3344 25.2632 41.3344C29.9488 41.3344 34.1879 38.5714 36.0561 34.2996L38.285 29.203C39.5748 26.2536 39.7141 22.9324 38.6756 19.8866Z" fill="#FFBD54"/>
<path d="M45.4564 23.5528C45.4564 25.6495 42.8298 26.6226 41.4582 25.0299C40.2152 23.5864 38.9385 21.9201 37.7107 20.0164C36.4264 18.0247 35.4031 16.0946 34.5855 14.3061C33.3531 11.61 36.5059 9.03432 38.9231 10.7652L44.4122 14.6958C45.0679 15.1653 45.4564 15.9197 45.4564 16.723V23.5528Z" fill="#FFBD54"/>
<path d="M44.4123 14.6957L41.9693 12.9461C42.1227 13.2727 42.2062 13.6323 42.2062 14.0029V20.8328C42.2062 22.2169 41.0616 23.1108 39.889 23.1006C40.414 23.7824 40.9391 24.4268 41.4584 25.0297C42.83 26.6226 45.4566 25.6494 45.4566 23.5526V16.7227C45.4566 15.9196 45.068 15.1653 44.4123 14.6957Z" fill="#C38325"/>
<path d="M5.06934 23.5528C5.06934 25.6495 7.69591 26.6226 9.06751 25.0299C10.3105 23.5864 11.5873 21.9201 12.815 20.0164C14.0994 18.0247 15.1227 16.0946 15.9402 14.3061C17.1727 11.61 14.0198 9.03432 11.6027 10.7652L6.11358 14.6958C5.45786 15.1653 5.06934 15.9197 5.06934 16.723V23.5528Z" fill="#FFBD54"/>
<path d="M22.9694 27.6505H26.6667C27.4224 27.6505 27.8906 28.4681 27.5048 29.1142L25.6561 32.2097C25.2785 32.842 24.3577 32.842 23.98 32.2097L22.1313 29.1142C21.7457 28.4681 22.2139 27.6505 22.9694 27.6505Z" fill="#9E9797"/>
<path d="M44.8692 6.4518H36.1307C33.7684 6.4518 31.8534 4.53684 31.8534 2.17446V1.06934H49.1465V2.17446C49.1465 4.53684 47.2314 6.4518 44.8692 6.4518Z" fill="#9E9797"/>
<path d="M75.9305 49.1478C75.9305 58.5903 63.8383 66.3135 63.8383 66.3135C63.8383 66.3135 51.7462 59.9045 51.7462 49.1478C51.7462 42.4695 57.16 37.0556 63.8383 37.0556C70.5167 37.0556 75.9305 42.4696 75.9305 49.1478Z" fill="#78C0DE"/>
<path d="M66.993 37.4741C69.8281 39.687 71.6534 43.134 71.6534 47.0093C71.6534 55.2316 62.4857 62.1494 60.1161 63.8001C62.1929 65.4406 63.8387 66.3136 63.8387 66.3136C63.8387 66.3136 75.9308 58.5903 75.9308 49.148C75.9308 43.5612 72.1412 38.8618 66.993 37.4741Z" fill="#61ADCD"/>
<path d="M63.8383 52.113C66.1327 52.113 67.9926 50.2531 67.9926 47.9587C67.9926 45.6643 66.1327 43.8044 63.8383 43.8044C61.544 43.8044 59.684 45.6643 59.684 47.9587C59.684 50.2531 61.544 52.113 63.8383 52.113Z" fill="white"/>
<path d="M46.124 47.1854C46.5728 47.5652 47.2479 47.5123 47.631 47.0598L47.6402 47.0489C48.0216 46.5981 47.9608 45.9288 47.51 45.5473C47.059 45.1658 46.3798 45.2275 45.9982 45.6783C45.617 46.1292 45.6732 46.804 46.124 47.1854ZM46.5283 35.476C46.8909 35.0098 46.8069 34.3381 46.3409 33.9755L46.3296 33.9667C45.8634 33.604 45.1915 33.6878 44.8291 34.1542C44.4665 34.6204 44.5505 35.2921 45.0166 35.6547L45.0279 35.6635C45.4907 36.0238 46.1636 35.9449 46.5283 35.476ZM46.9723 64.9138C47.5677 64.9138 48.0559 64.4412 48.0559 63.8445C48.0559 63.2538 47.5771 62.7752 46.9866 62.7752H46.9723C46.3818 62.7752 45.903 63.2538 45.903 63.8445C45.903 64.4352 46.3818 64.9138 46.9723 64.9138ZM51.2639 64.9138C51.8593 64.9138 52.3475 64.4412 52.3475 63.8445C52.3475 63.2538 51.8688 62.7752 51.2782 62.7752H51.2639C50.6734 62.7752 50.1946 63.2538 50.1946 63.8445C50.1946 64.4352 50.6734 64.9138 51.2639 64.9138ZM28.6411 21.4284C29.1086 21.2423 29.6006 21.146 30.1029 21.1418C30.6275 21.1366 31.1429 21.2339 31.6314 21.4284C32.1676 21.6416 32.7992 21.3856 33.0202 20.8302C33.2386 20.2815 32.9707 19.6597 32.4221 19.4412C31.6754 19.1441 30.8898 18.9947 30.0854 19.0032C29.3169 19.0097 28.5649 19.1571 27.8506 19.4412C27.3018 19.6595 27.0339 20.2813 27.2522 20.8301C27.4705 21.3787 28.0924 21.6471 28.6411 21.4284ZM21.8847 21.4284C22.0145 21.4798 22.1482 21.5043 22.2798 21.5043C22.7048 21.5043 23.1069 21.2491 23.2737 20.8301C23.4921 20.2813 23.2242 19.6595 22.6756 19.4411C21.9289 19.144 21.1432 18.9945 20.3389 19.0031C19.5704 19.0095 18.8184 19.1569 18.1041 19.4411C17.5553 19.6594 17.2874 20.2812 17.5057 20.83C17.7239 21.3787 18.3458 21.6469 18.8946 21.4282C19.3621 21.2421 19.8541 21.1459 20.3564 21.1416C20.8817 21.1366 21.3961 21.234 21.8847 21.4284ZM29.9107 34.3144C29.9107 33.7237 29.4319 33.2451 28.8414 33.2451C28.2508 33.2451 27.7721 33.7237 27.7721 34.3144C27.7721 34.8277 27.3493 35.245 26.8298 35.245C26.3102 35.245 25.8875 34.8276 25.8875 34.3144V33.4537C26.1638 33.2844 26.4003 33.0489 26.5743 32.7578L28.4229 29.6624C28.8032 29.0256 28.8117 28.2604 28.4457 27.6155C28.0836 26.9775 27.4021 26.5811 26.6668 26.5811H22.9694C22.2343 26.5811 21.5527 26.9775 21.1905 27.6155C20.8245 28.2604 20.8329 29.0258 21.2133 29.6624L23.062 32.7578C23.2359 33.0489 23.4725 33.2844 23.7488 33.4537V34.3144C23.7488 34.8277 23.326 35.245 22.8065 35.245C22.2868 35.245 21.8642 34.8276 21.8642 34.3144C21.8642 33.7237 21.3854 33.2451 20.7948 33.2451C20.2043 33.2451 19.7255 33.7237 19.7255 34.3144C19.7255 36.0068 21.1077 37.3837 22.8065 37.3837C23.5748 37.3837 24.2779 37.1014 24.8181 36.6362C25.3583 37.1012 26.0614 37.3837 26.8298 37.3837C28.5286 37.3837 29.9107 36.0068 29.9107 34.3144ZM23.1413 28.7198H26.4947L24.818 31.5272L23.1413 28.7198ZM37.0356 34.7285L39.264 29.6316C39.8558 28.2791 40.2254 26.8496 40.3673 25.3956C40.4608 25.5064 40.5536 25.6179 40.6481 25.7275C41.2987 26.4832 42.2149 26.8907 43.1648 26.8907C43.5584 26.8907 43.9579 26.8207 44.3466 26.6764C45.6705 26.1849 46.5259 24.9589 46.5259 23.5528V16.7228C46.5259 15.5777 45.9684 14.4948 45.0348 13.8264L39.5457 9.89578C38.0571 8.82986 36.108 8.89502 34.6956 10.0586C34.4966 10.2226 34.3194 10.4025 34.16 10.5931C32.6787 9.72639 30.9721 9.25774 29.2474 9.25774H22.0361V5.34668C22.0361 3.57786 23.4752 2.13867 25.2441 2.13867H30.784V2.17446C30.784 5.12269 33.1825 7.52114 36.1307 7.52114H44.8692C47.8174 7.52114 50.2158 5.12269 50.2158 2.17446V2.13867H55.7559C57.5248 2.13867 58.9639 3.57786 58.9639 5.34668V33.3904C58.9639 33.9811 59.4426 34.4597 60.0332 34.4597C60.6238 34.4597 61.1025 33.9811 61.1025 33.3904V5.34668C61.1025 2.39845 58.7041 0 55.7559 0H25.2441C22.2959 0 19.8975 2.39845 19.8975 5.34668V9.3584C18.6533 9.53862 17.4488 9.95837 16.3652 10.5924C16.206 10.4021 16.0289 10.2223 15.83 10.0585C14.4178 8.89502 12.4687 8.82972 10.9799 9.89563L5.49108 13.8264C4.55748 14.4948 4 15.5777 4 16.7228V23.5528C4 24.9589 4.85547 26.1849 6.17931 26.6764C6.56812 26.8207 6.96734 26.8907 7.36128 26.8907C8.31099 26.8907 9.22734 26.4832 9.87793 25.7277C9.97231 25.618 10.0651 25.5067 10.1585 25.3959C10.3002 26.849 10.6697 28.2782 11.2612 29.6313L13.4899 34.7288C15.5302 39.3913 20.1513 42.4042 25.2627 42.4042C30.3757 42.4042 34.9968 39.3912 37.0356 34.7285ZM32.9227 2.13867H48.0772V2.17446C48.0772 3.94328 46.6381 5.38247 44.8692 5.38247H36.1307C34.3617 5.38247 32.9227 3.94328 32.9227 2.17446V2.13867ZM36.0557 11.7091C36.3587 11.4594 36.7734 11.2714 37.2324 11.2714C37.5733 11.2714 37.9386 11.3753 38.3007 11.6345L43.7898 15.5651C44.1641 15.833 44.3874 16.2659 44.3874 16.7228V23.5528C44.3874 24.3204 43.7867 24.603 43.6025 24.6714C43.4174 24.7402 42.7741 24.9187 42.2688 24.332C40.9418 22.7911 39.7107 21.1442 38.6097 19.4368C37.4639 17.66 36.4374 15.7843 35.5584 13.8614C35.1316 12.9281 35.5354 12.1377 36.0557 11.7091ZM8.25724 24.3321C7.75194 24.9187 7.10849 24.7402 6.92356 24.6714C6.73935 24.6031 6.13867 24.3204 6.13867 23.5528V16.7228C6.13867 16.2657 6.36195 15.833 6.73622 15.5651L12.2253 11.6345C12.5875 11.3753 12.9528 11.2714 13.2937 11.2714C13.7526 11.2714 14.1672 11.4594 14.4704 11.7091C14.9905 12.1377 15.3944 12.9281 14.9677 13.8614C14.089 15.7838 13.0623 17.6597 11.9164 19.4368C10.8154 21.1441 9.58421 22.7911 8.25724 24.3321ZM15.4493 33.8716L13.2207 28.7744C12.3755 26.8416 12.0656 24.7258 12.3167 22.6384C12.8012 21.9687 13.2679 21.2871 13.7137 20.5957C14.9152 18.7326 15.9915 16.7659 16.9129 14.7504C17.2382 14.0388 17.3413 13.2837 17.2424 12.5623C18.4426 11.807 19.8517 11.3961 21.2778 11.3961H29.2479C30.6735 11.3961 32.0828 11.8075 33.2837 12.5631C33.185 13.2844 33.2881 14.0391 33.6132 14.7504C34.5348 16.7663 35.6111 18.7331 36.8124 20.5957C37.2585 21.2873 37.7254 21.9693 38.2101 22.6393C38.46 24.7279 38.1496 26.8433 37.3045 28.7744L35.0762 33.8714C33.3778 37.7555 29.5258 40.2653 25.2627 40.2653C21.0009 40.2655 17.1488 37.7557 15.4493 33.8716ZM48.4966 39.2667C49.057 39.08 49.3597 38.4743 49.173 37.9141L49.1602 37.8772C48.9604 37.3214 48.3462 37.0273 47.7906 37.2274C47.2348 37.427 46.9444 38.0346 47.1441 38.5905C47.3462 39.1528 47.9487 39.4494 48.4966 39.2667ZM33.0511 63.5512C32.9471 64.1325 33.3339 64.6883 33.9152 64.7923C34.5007 64.8973 35.0863 64.5058 35.1757 63.8977C35.2608 63.3184 34.8645 62.7794 34.2883 62.6865C33.7083 62.5861 33.1551 62.9712 33.0511 63.5512ZM49.5734 42.6347L49.5771 42.6051C49.6461 42.0186 49.2266 41.4865 48.6401 41.4175C48.0542 41.3495 47.5223 41.7676 47.4533 42.354C47.3758 42.9394 47.7876 43.4769 48.373 43.5545C48.9468 43.6306 49.4965 43.2238 49.5734 42.6347ZM29.345 54.3491C29.5369 53.7904 29.2382 53.1868 28.6797 52.9947C28.1211 52.8027 27.5111 53.1046 27.3192 53.6631C27.1249 54.2208 27.4195 54.8304 27.9771 55.0247C28.5212 55.2144 29.1431 54.9311 29.3388 54.3669L29.345 54.3491ZM27.8848 57.1925C27.3129 57.3398 26.9686 57.9224 27.1159 58.4942C27.2345 58.9837 27.6721 59.3119 28.1543 59.3119C28.8344 59.3119 29.3599 58.6528 29.1944 57.9904C29.1931 57.9854 29.1884 57.9667 29.1871 57.9617C29.0399 57.3901 28.457 57.0457 27.8848 57.1925ZM63.8385 35.9863C56.5812 35.9863 50.6769 41.8905 50.6769 49.1478C50.6769 53.8411 52.8793 58.4686 57.0459 62.5302C57.6956 63.1635 58.3437 63.7354 58.9637 64.2457V67.6533C58.9637 69.4221 57.5247 70.8613 55.7557 70.8613H25.2441C23.4752 70.8613 22.0361 69.4221 22.0361 67.6533V44.8977C22.0361 44.307 21.5574 43.8284 20.9668 43.8284C20.3762 43.8284 19.8975 44.307 19.8975 44.8977V67.6533C19.8975 70.6015 22.2959 73 25.2441 73H55.7559C58.7041 73 61.1025 70.6015 61.1025 67.6533V65.8618C62.3816 66.7469 63.2696 67.2223 63.3377 67.2584C63.4947 67.3415 63.6668 67.3829 63.8385 67.3829C64.0391 67.3829 64.2393 67.3264 64.4142 67.2148C64.9281 66.8864 77 59.0621 77 49.1477C77 41.8906 71.0958 35.9863 63.8385 35.9863ZM63.7926 65.0521C61.502 63.6697 52.8158 57.8511 52.8158 49.1478C52.8158 43.0699 57.7605 38.125 63.8386 38.125C69.9167 38.125 74.8613 43.0699 74.8613 49.1478C74.8613 56.7973 66.0648 63.4592 63.7926 65.0521ZM31.4537 51.405C31.9199 51.0424 32.0039 50.3706 31.6412 49.9045C31.2786 49.4381 30.6069 49.3543 30.1407 49.717L30.1294 49.7258C29.6632 50.0884 29.5792 50.7602 29.9419 51.2263C30.3067 51.6953 30.9798 51.7741 31.4424 51.4138L31.4537 51.405ZM63.8385 42.7351C60.9581 42.7351 58.6148 45.0785 58.6148 47.9587C58.6148 50.8391 60.9582 53.1825 63.8385 53.1825C66.7187 53.1825 69.0621 50.8391 69.0621 47.9587C69.0622 45.0785 66.7188 42.7351 63.8385 42.7351ZM63.8385 51.0438C62.1374 51.0438 60.7535 49.6598 60.7535 47.9587C60.7535 46.2576 62.1375 44.8738 63.8385 44.8738C65.5394 44.8738 66.9234 46.2576 66.9234 47.9587C66.9234 49.6598 65.5396 51.0438 63.8385 51.0438ZM31.0914 62.6185C31.5005 62.1924 31.4866 61.5155 31.0606 61.1066L31.0337 61.0812C30.5989 60.6811 29.9196 60.7066 29.5196 61.1412C29.1198 61.5759 29.1449 62.2493 29.5795 62.6493C30.0137 63.0486 30.6821 63.0448 31.0914 62.6185ZM35.8023 48.931C35.7512 48.3451 35.2364 47.9108 34.6495 47.9584C34.066 47.9994 33.6226 48.5024 33.6571 49.0879C33.6906 49.6561 34.1618 50.0945 34.7236 50.0945C34.7447 50.0945 34.7659 50.094 34.7873 50.0927C35.3916 50.0572 35.8558 49.5425 35.8023 48.931ZM44.307 48.3719C44.1333 47.8074 43.5302 47.4921 42.9659 47.6657C42.4007 47.837 42.0813 48.4341 42.2526 48.9993C42.4258 49.5707 43.0336 49.8811 43.5861 49.7126L43.6041 49.707C44.1684 49.5332 44.4806 48.9364 44.307 48.3719ZM42.695 64.9138C43.2855 64.9138 43.7643 64.4352 43.7643 63.8445C43.7643 63.2538 43.2855 62.7752 42.695 62.7752H42.6807C42.0902 62.7752 41.6114 63.2538 41.6114 63.8445C41.6114 64.4385 42.0992 64.9138 42.695 64.9138ZM42.8056 33.3574C42.84 32.7723 42.3973 32.2696 41.8144 32.2281C41.2279 32.1782 40.7104 32.6123 40.6587 33.1995C40.6068 33.7877 41.0417 34.3067 41.6299 34.3586C41.6403 34.3596 41.6649 34.3615 41.6753 34.362C42.2583 34.401 42.771 33.9487 42.8056 33.3574ZM38.3891 62.7752C37.7986 62.7752 37.3269 63.2538 37.3269 63.8445C37.3269 64.4352 37.8128 64.9138 38.4034 64.9138C38.9939 64.9138 39.4727 64.4352 39.4727 63.8445C39.4727 63.2538 38.9939 62.7752 38.4034 62.7752H38.3891ZM40.0988 48.9988C40.0988 48.4081 39.62 47.9295 39.0294 47.9295H39.0152C38.4246 47.9295 37.9459 48.4081 37.9459 48.9988C37.9459 49.5928 38.4336 50.0682 39.0294 50.0682C39.62 50.0682 40.0988 49.5895 40.0988 48.9988Z" fill="black"/>
</g>
<defs>
<filter id="filter0_d" x="0" y="0" width="81" height="81" filterUnits="userSpaceOnUse" color-interpolation-filters="sRGB">
<feFlood flood-opacity="0" result="BackgroundImageFix"/>
<feColorMatrix in="SourceAlpha" type="matrix" values="0 0 0 0 0 0 0 0 0 0 0 0 0 0 0 0 0 0 127 0"/>
<feOffset dy="4"/>
<feGaussianBlur stdDeviation="2"/>
<feColorMatrix type="matrix" values="0 0 0 0 0 0 0 0 0 0 0 0 0 0 0 0 0 0 0.25 0"/>
<feBlend mode="normal" in2="BackgroundImageFix" result="effect1_dropShadow"/>
<feBlend mode="normal" in="SourceGraphic" in2="effect1_dropShadow" result="shape"/>
</filter>
</defs>
</svg>
