<svg width="46" height="73" viewBox="0 0 46 73" fill="none" xmlns="http://www.w3.org/2000/svg">
<path d="M37.8584 71.4307H7.34668C5.26045 71.4307 3.56934 69.7396 3.56934 67.6533V5.34668C3.56934 3.26045 5.26045 1.56934 7.34668 1.56934H37.8584C39.9446 1.56934 41.6357 3.26045 41.6357 5.34668V67.6533C41.6357 69.7396 39.9446 71.4307 37.8584 71.4307Z" fill="#EAF6FF" stroke="black"/>
<path d="M37.8584 72.5H7.34668C4.67459 72.5 2.5 70.3254 2.5 67.6533V5.34668C2.5 2.67459 4.67459 0.5 7.34668 0.5H37.8584C40.5305 0.5 42.7051 2.67459 42.7051 5.34668V67.6533C42.7051 70.3254 40.5305 72.5 37.8584 72.5ZM7.34668 1.63867C5.30156 1.63867 3.63867 3.30173 3.63867 5.34668V67.6533C3.63867 69.6983 5.30156 71.3613 7.34668 71.3613H37.8584C39.9035 71.3613 41.5664 69.6983 41.5664 67.6533V5.34668C41.5664 3.30173 39.9035 1.63867 37.8584 1.63867H7.34668Z" fill="#9E9797" stroke="black"/>
<path d="M26.9717 5.9518H18.2333C16.147 5.9518 14.4559 4.26069 14.4559 2.17446V1.56934H30.7491V2.17446C30.7491 4.26068 29.0578 5.9518 26.9717 5.9518Z" fill="#9E9797" stroke="black"/>
<path d="M31.6357 28.9629C39.1686 28.9784 45.323 35.1432 45.3263 42.6762C45.3278 46.0429 44.1163 49.1265 42.1053 51.5144C41.253 52.5263 41.0802 53.9466 41.6636 55.134L43.157 58.1741C43.2796 58.4237 43.0339 58.695 42.7733 58.5975L36.4241 56.221C35.8241 55.9964 35.1723 55.9488 34.5464 56.0857C33.5158 56.3109 32.4419 56.4206 31.3388 56.3994C23.8894 56.2566 17.8766 50.1127 17.8875 42.662C17.8983 35.0846 24.0522 28.9472 31.6357 28.9629Z" fill="#FFBD54"/>
<path d="M41.6635 55.134C41.0802 53.9466 41.2529 52.5263 42.1053 51.5144C44.1164 49.1265 45.3279 46.0429 45.3264 42.6762C45.3231 35.1433 39.1687 28.9784 31.6358 28.9629C31.1312 28.9618 30.633 28.9888 30.1423 29.0409C37.008 29.7755 42.3983 35.6266 42.4014 42.6762C42.4029 46.0429 41.1915 49.1265 39.1803 51.5144C38.3281 52.5263 38.1553 53.9466 38.7386 55.134L39.9143 57.5273L42.7733 58.5974C43.0338 58.6949 43.2795 58.4237 43.1569 58.174L41.6635 55.134Z" fill="#FFD064"/>
<path d="M14.3645 22.6738C6.83153 22.6894 0.677154 28.8542 0.67383 36.3872C0.672302 39.7539 1.88384 42.8374 3.8949 45.2254C4.74716 46.2373 4.91993 47.6575 4.33657 48.845L2.84319 51.885C2.72056 52.1347 2.96628 52.4059 3.22682 52.3085L9.57607 49.9319C10.176 49.7074 10.8279 49.6598 11.4537 49.7966C12.4844 50.0218 13.5583 50.1315 14.6614 50.1103C22.1108 49.9676 28.1236 43.8236 28.1127 36.3729C28.1018 28.7956 21.9481 22.6582 14.3645 22.6738Z" fill="#78C0DE"/>
<path d="M14.3647 22.6738C13.8445 22.6749 13.3312 22.7063 12.8256 22.7645C19.6534 23.5458 24.9582 29.3383 24.9685 36.3729C24.9788 43.3829 19.6567 49.2353 12.8231 50.0222C13.4252 50.091 14.0386 50.1222 14.6618 50.1103C22.1111 49.9674 28.1239 43.8235 28.1131 36.3728C28.102 28.7956 21.9483 22.6582 14.3647 22.6738Z" fill="#80B4FB"/>
<path d="M13.8446 33.6734L10.2559 30.0847C10.0954 29.9242 9.83534 29.9242 9.67488 30.0847L8.8679 30.8916C7.66301 32.0965 7.66301 34.0501 8.8679 35.255L15.5315 41.9186C16.7364 43.1235 18.69 43.1235 19.8949 41.9186L20.7018 41.1116C20.8623 40.9512 20.8623 40.6911 20.7018 40.5306L17.1131 36.9419C16.9527 36.7814 16.6926 36.7814 16.5321 36.9419L15.8088 37.6652C15.4631 38.0108 14.9029 38.0108 14.5572 37.6652L13.1212 36.2292C12.7756 35.8836 12.7756 35.3234 13.1212 34.9777L13.8445 34.2544C14.0051 34.094 14.0051 33.8338 13.8446 33.6734Z" fill="#26457D"/>
<path d="M28.6782 42.1569V43.2079C28.6782 43.5802 28.9798 43.8818 29.352 43.8818C29.7243 43.8818 30.0259 43.5802 30.0259 43.2079V42.1569C30.0259 41.7846 29.7243 41.483 29.352 41.483C28.9798 41.483 28.6782 41.7846 28.6782 42.1569Z" fill="black"/>
<path d="M33.1873 42.1569V43.2079C33.1873 43.5802 33.4889 43.8818 33.8611 43.8818C34.2333 43.8818 34.5349 43.5802 34.5349 43.2079V42.1569C34.5349 41.7846 34.2333 41.483 33.8611 41.483C33.4889 41.483 33.1873 41.7846 33.1873 42.1569Z" fill="black"/>
<path d="M37.6963 42.1569V43.2079C37.6963 43.5802 37.9979 43.8818 38.3701 43.8818C38.7423 43.8818 39.0439 43.5802 39.0439 43.2079V42.1569C39.0439 41.7846 38.7423 41.483 38.3701 41.483C37.9979 41.483 37.6963 41.7846 37.6963 42.1569Z" fill="black"/>
<path d="M31.6368 28.289H31.606C29.9591 28.289 28.3496 28.5649 26.8128 29.1084C26.1948 28.059 25.4393 27.0812 24.5539 26.1987C21.8366 23.4903 18.2294 22 14.3935 22H14.363C12.7531 22.0033 11.169 22.2747 9.65457 22.8066C9.30346 22.9299 9.11875 23.3145 9.2421 23.6657C9.36546 24.0169 9.7499 24.2018 10.1012 24.0782C11.4726 23.5965 12.9074 23.3507 14.3659 23.3477H14.3935C17.87 23.3477 21.1399 24.6987 23.6027 27.1533C25.9784 29.5211 27.4337 32.7644 27.439 36.3739C27.444 39.8001 26.1173 43.0449 23.7033 45.5107C21.2612 48.0051 18.0292 49.3717 14.6487 49.4365C13.6204 49.4573 12.5935 49.3559 11.5978 49.1382C10.8445 48.9735 10.0639 49.0298 9.34003 49.3008L3.855 51.3539L4.94148 49.1421C5.6427 47.7146 5.43409 46.007 4.41032 44.7914C2.43395 42.4446 1.34621 39.4601 1.34765 36.3874C1.34963 31.8143 3.81376 27.5131 7.77837 25.1624C8.09839 24.9726 8.20405 24.5593 8.0143 24.2392C7.82455 23.9191 7.41118 23.8135 7.09107 24.0032C4.97562 25.2575 3.20121 27.0422 1.95958 29.1644C0.678768 31.3535 0.00116942 33.851 1.45591e-06 36.3869C-0.00152588 39.7769 1.19869 43.07 3.37955 45.6594C4.05913 46.4662 4.19748 47.6001 3.73192 48.5478L2.23854 51.5879C2.06011 51.951 2.12048 52.3795 2.39208 52.6793C2.66521 52.9806 3.08648 53.0804 3.46319 52.9394L9.81252 50.5628C10.2929 50.3831 10.8107 50.3456 11.31 50.4548C12.4086 50.6949 13.5407 50.805 14.6745 50.7839C16.239 50.7539 17.7635 50.4722 19.2022 49.9603C21.7415 54.2673 26.3324 56.9774 31.3253 57.073C32.4599 57.0945 33.591 56.9839 34.6898 56.7438C35.1892 56.6348 35.707 56.672 36.1875 56.852L42.5368 59.2285C43.3665 59.5386 44.1531 58.6746 43.7613 57.8769L42.268 54.8369C41.8168 53.9183 41.9376 52.807 42.576 52.0057C42.8079 51.7147 42.7599 51.2907 42.4688 51.0589C42.1778 50.8272 41.7537 50.875 41.5219 51.166C40.5605 52.373 40.3786 54.047 41.0585 55.431L42.145 57.6428L36.6601 55.5897C35.9363 55.3187 35.1556 55.2625 34.4022 55.427C33.4062 55.6448 32.3796 55.7459 31.3513 55.7253C26.8915 55.6399 22.7851 53.2509 20.4634 49.4421C22.0108 48.7177 23.4336 47.7125 24.6664 46.4532C27.329 43.7336 28.7923 40.1532 28.7867 36.3717C28.7836 34.2439 28.3212 32.1875 27.4478 30.3147C28.784 29.8649 30.1791 29.6365 31.6062 29.6365H31.6341C38.8092 29.6513 44.6492 35.5009 44.6523 42.6763C44.6533 44.9021 44.0838 47.0995 43.0054 49.031C42.824 49.356 42.9404 49.7665 43.2653 49.9479C43.5897 50.1288 44.0004 50.0135 44.1822 49.6879C45.3725 47.556 46.0011 45.1311 46 42.6757C45.9964 34.7593 39.5531 28.3054 31.6368 28.289Z" fill="black"/>
<path d="M8.39155 35.7315L12.0371 39.3771C12.3004 39.6402 12.727 39.6402 12.9901 39.3771C13.2533 39.1139 13.2533 38.6873 12.9901 38.4241L9.34452 34.7785C8.40422 33.8383 8.40422 32.3084 9.34452 31.3682L9.96543 30.7472L13.1823 33.964L12.6449 34.5013C12.0371 35.1091 12.0371 36.098 12.6449 36.7058L14.0809 38.1417C14.6889 38.7495 15.6777 38.7494 16.2855 38.1417L16.8227 37.6044L20.0395 40.8212L19.4185 41.4422C18.4783 42.3825 16.9483 42.3825 16.0081 41.4422L14.8976 40.3316C14.6343 40.0685 14.2078 40.0685 13.9446 40.3316C13.6814 40.5948 13.6814 41.0214 13.9446 41.2846L15.0552 42.3951C15.788 43.1279 16.7507 43.4944 17.7134 43.4944C18.676 43.4944 19.6387 43.1279 20.3716 42.3951L21.1784 41.5882C21.3833 41.3833 21.4961 41.111 21.4961 40.8212C21.4961 40.5314 21.3832 40.259 21.1784 40.0542L17.5898 36.4655C17.1668 36.0426 16.4786 36.0426 16.0557 36.4656L15.3325 37.1889C15.2503 37.2712 15.1164 37.2714 15.034 37.1889L13.598 35.7529C13.5156 35.6706 13.5156 35.5367 13.598 35.4544L14.3213 34.7311C14.7442 34.3081 14.7442 33.62 14.3213 33.197L10.7327 29.6086C10.5278 29.4037 10.2554 29.2907 9.96561 29.2907C9.67586 29.2907 9.40355 29.4036 9.19861 29.6084L8.39173 30.4153C6.92593 31.8809 6.92593 34.2658 8.39155 35.7315Z" fill="black"/>
</svg>
